<?xml version="1.0" ?><!-- Uploaded to: SVG Repo, www.svgrepo.com, Generator: SVG Repo Mixer Tools -->
<svg width="800px" height="800px" viewBox="0 0 32 32" id="OBJECT" xmlns="http://www.w3.org/2000/svg"><defs><style>.cls-1{fill:#b2b2b2;}</style></defs><title/><path d="M23.88,27.3l-2.65-2.65a1,1,0,0,1-.29-.71V18h2v5.53l2.36,2.35Z"/><path d="M8.12,27.3,6.7,25.88l2.36-2.35V18h2v5.94a1,1,0,0,1-.29.71Z"/><rect height="6" width="2" x="15" y="18"/><path class="cls-1" d="M25,7h-.52a9,9,0,0,0-17,0H7A6,6,0,0,0,7,19H25A6,6,0,0,0,25,7Z"/><circle class="cls-1" cx="16" cy="27" r="4"/><circle class="cls-1" cx="26" cy="28" r="3"/><circle class="cls-1" cx="6" cy="28" r="3"/></svg>