<?xml version="1.0" encoding="iso-8859-1"?>
<!-- Uploaded to: SVG Repo, www.svgrepo.com, Generator: SVG Repo Mixer Tools -->
<svg height="800px" width="800px" version="1.1" id="Layer_1" xmlns="http://www.w3.org/2000/svg" xmlns:xlink="http://www.w3.org/1999/xlink" 
	 viewBox="0 0 392.598 392.598" xml:space="preserve">
<path style="fill:#56ACE0;" d="M258.909,150.756c0-8.663-5.236-16.162-13.123-18.747c-31.935-10.667-66.974-10.667-98.909,0
	c-7.887,2.651-13.123,10.214-13.123,18.747v10.343h125.156V150.756z"/>
<g>
	<path style="fill:#FFC10D;" d="M196.331,65.293c11.96,0,21.721-9.762,21.721-21.721s-9.762-21.721-21.721-21.721
		s-21.721,9.762-21.721,21.721S184.372,65.293,196.331,65.293z"/>
	<path style="fill:#FFC10D;" d="M147.006,360.404c0-8.663-5.236-16.162-13.123-18.747c-31.935-10.667-66.974-10.667-98.909,0
		c-7.887,2.65-13.123,10.214-13.123,18.747v10.343h125.156V360.404z"/>
</g>
<g>
	<path style="fill:#FFFFFF;" d="M84.428,274.941c11.96,0,21.721-9.762,21.721-21.721c0-11.96-9.762-21.721-21.721-21.721
		s-21.721,9.762-21.721,21.721C62.642,265.18,72.469,274.941,84.428,274.941z"/>
	<path style="fill:#FFFFFF;" d="M370.812,360.404c0-8.663-5.236-16.162-13.123-18.747c-31.935-10.667-66.974-10.667-98.909,0
		c-7.887,2.65-13.123,10.214-13.123,18.747v10.343h125.156V360.404z"/>
</g>
<path style="fill:#56ACE0;" d="M308.234,274.941c11.96,0,21.721-9.762,21.721-21.721c0-11.96-9.762-21.721-21.721-21.721
	s-21.721,9.762-21.721,21.721C286.448,265.18,296.275,274.941,308.234,274.941z"/>
<g>
	<path style="fill:#194F82;" d="M196.331,87.079c24.048,0,43.572-19.523,43.572-43.572S220.38,0,196.331,0
		s-43.572,19.523-43.572,43.572S172.283,87.079,196.331,87.079z M196.331,21.786c11.96,0,21.721,9.762,21.721,21.721
		s-9.762,21.721-21.721,21.721s-21.721-9.762-21.721-21.721S184.372,21.786,196.331,21.786z"/>
	<path style="fill:#194F82;" d="M140.8,320.905c-36.331-12.154-76.347-12.154-112.743,0c-16.743,5.624-27.992,21.463-27.992,39.499
		v21.269c0,6.012,4.848,10.925,10.925,10.925h146.941c6.012,0,10.925-4.848,10.925-10.925v-21.269
		C168.792,342.368,157.543,326.529,140.8,320.905z M21.85,360.404c0-8.663,5.236-16.162,13.123-18.747
		c31.935-10.667,66.974-10.667,98.909,0c7.887,2.65,13.123,10.214,13.123,18.747v10.343H21.85V360.404z"/>
	<path style="fill:#194F82;" d="M84.428,296.727c24.048,0,43.572-19.523,43.572-43.572s-19.523-43.572-43.572-43.572
		s-43.572,19.523-43.572,43.572S60.38,296.727,84.428,296.727z M84.428,231.434c11.96,0,21.721,9.762,21.721,21.721
		s-9.762,21.721-21.721,21.721s-21.721-9.762-21.721-21.721C62.642,241.131,72.469,231.434,84.428,231.434z"/>
	<path style="fill:#194F82;" d="M364.541,320.905c-36.331-12.154-76.347-12.154-112.743,0c-16.743,5.56-28.057,21.463-28.057,39.499
		v21.269c0,6.012,4.848,10.925,10.925,10.925h146.941c6.012,0,10.925-4.848,10.925-10.925v-21.269
		C392.598,342.368,381.349,326.529,364.541,320.905z M245.656,360.404c0-8.663,5.236-16.162,13.123-18.747
		c31.935-10.667,66.974-10.667,98.909,0c7.887,2.65,13.123,10.214,13.123,18.747v10.343H245.656V360.404z"/>
	<path style="fill:#194F82;" d="M264.663,253.22c0,24.048,19.523,43.572,43.572,43.572c24.048,0,43.572-19.523,43.572-43.572
		s-19.523-43.572-43.572-43.572C284.186,209.648,264.663,229.172,264.663,253.22z M308.234,231.434
		c11.96,0,21.721,9.762,21.721,21.721s-9.762,21.721-21.721,21.721s-21.721-9.762-21.721-21.721
		C286.448,241.131,296.275,231.434,308.234,231.434z"/>
	<path style="fill:#194F82;" d="M245.139,265.115c3.814-4.655,3.103-11.507-1.551-15.321l-36.267-29.543v-37.236h62.578
		c6.012,0,10.925-4.848,10.925-10.925V150.82c0-18.036-11.313-33.875-28.057-39.499c-36.331-12.154-76.347-12.154-112.743,0
		c-16.743,5.56-28.057,21.463-28.057,39.499v21.269c0,6.012,4.848,10.925,10.925,10.925h62.578v37.236l-36.331,29.543
		c-4.655,3.814-5.43,10.667-1.551,15.321c3.814,4.655,10.667,5.43,15.386,1.552l33.487-27.281l33.487,27.281
		C234.473,270.545,241.39,269.834,245.139,265.115z M133.753,150.756c0-8.663,5.236-16.162,13.123-18.747
		c31.935-10.667,66.974-10.667,98.909,0c7.887,2.651,13.123,10.214,13.123,18.747v10.343H133.753V150.756z"/>
</g>
</svg>