<?xml version="1.0" encoding="iso-8859-1"?>
<!-- Uploaded to: SVG Repo, www.svgrepo.com, Generator: SVG Repo Mixer Tools -->
<svg version="1.1" id="Layer_1" xmlns="http://www.w3.org/2000/svg" xmlns:xlink="http://www.w3.org/1999/xlink" 
	 viewBox="0 0 508 508" xml:space="preserve">
<circle style="fill:#324A5E;" cx="254" cy="254" r="254"/>
<g>
	<path style="fill:#E6E9EE;" d="M226.4,106.4H312v45.2c0-0.4-0.4-0.8-0.4-1.2c-1.6-3.6-5.6-6-9.6-6c-6,0-10.4,4.8-10.4,10.4
		c0,0.8,0,1.6,0.4,2.4c0.8,4,1.6,9.2,1.2,15.2c-0.8,13.2,8.8,27.2,16,36h-82.8V106.4z"/>
	<path style="fill:#E6E9EE;" d="M373.6,106.4h0.4c-0.4,0.8-0.4,2-0.4,3.2v-2.4C373.6,107.2,373.6,106.8,373.6,106.4z"/>
	<path style="fill:#E6E9EE;" d="M504,208.4H387.2l1.2-5.2c4-16,5.6-32.8,5.6-49.2v-42.8c0-1.6-0.4-3.2-1.2-4.4h68
		C482.4,136.4,497.2,171.2,504,208.4z"/>
</g>
<path style="fill:#FFD05B;" d="M385.2,101.6c-6.4-0.4-11.6,2-11.6,8v-2.4c0-4.8-4-9.2-8.8-9.2c-6.4-0.4-11.6,2-11.6,8v-1.6
	c0-5.6-4.8-10.4-10.4-10.4c-2.8,0-5.2,0.8-7.2,2s-3.2,3.2-3.2,6v-2.4c0-5.2-3.2-9.6-8.4-10.8c-6.4-1.2-12.4,4-12.4,10.4v52.4
	c0-0.4-0.4-0.8-0.4-1.2c-1.6-3.6-5.6-6-9.6-6l0,0c-6.8,0-11.6,6.4-10,12.8c0.8,4,1.6,9.2,1.2,15.2c-1.2,21.2,24.4,44.8,24.4,44.8
	h67.6l3.2-14c4-16,5.6-32.8,5.6-49.2v-42.8C394,106,390,102,385.2,101.6z"/>
<rect x="308.8" y="217.6" style="fill:#FFFFFF;" width="81.2" height="12"/>
<g>
	<path style="fill:#54C0EB;" d="M400.4,229.2V312h-45.2c0.4,0,0.8-0.4,1.2-0.4c3.6-1.6,6-5.6,6-9.6c0-6-4.8-10.4-10.4-10.4
		c-0.8,0-1.6,0-2.4,0.4c-4,0.8-9.2,1.6-15.2,1.2c-13.2-0.8-27.2,8.8-36,16v-80L400.4,229.2L400.4,229.2z"/>
	<path style="fill:#54C0EB;" d="M399.6,373.6c0.4,0,0.4,0,0.8,0v0.8c-0.8-0.4-2-0.4-3.2-0.4h2.4V373.6z"/>
	<path style="fill:#54C0EB;" d="M396,394.4c1.6,0,3.2-0.4,4.4-1.2v68c-30,21.2-64.4,36-102,42.8V387.2l5.2,1.2
		c16,4,32.8,5.6,49.2,5.6H396V394.4z"/>
</g>
<path style="fill:#FFD05B;" d="M405.6,385.2c0.4-6.4-2-11.6-8-11.6h2.4c4.8,0,9.2-4,9.2-8.8c0.4-6.4-2-11.6-8-11.6h1.6
	c5.6,0,10.4-4.8,10.4-10.4c0-2.8-0.8-5.2-2-7.2s-3.2-3.2-6-3.2h2.4c5.2,0,9.6-3.2,10.8-8.4c1.2-6.4-4-12.4-10.4-12.4h-52.8
	c0.4,0,0.8-0.4,1.2-0.4c3.6-1.6,6-5.6,6-9.6l0,0c0-6.8-6.4-11.6-12.8-10c-4,0.8-9.2,1.6-15.2,1.2c-21.2-1.2-44.8,24.4-44.8,24.4
	v67.6l14,3.2c16,4,32.8,5.6,49.2,5.6H396C401.2,394.4,405.2,390.4,405.6,385.2z"/>
<rect x="277.6" y="309.2" style="fill:#FFFFFF;" width="12" height="81.2"/>
<g>
	<path style="fill:#FF7058;" d="M4,298.8h112.8l-1.2,5.2c-4,16-5.6,32.8-5.6,49.2v43.2c0,1.6,0.4,3.2,1.2,4.4h-64
		C25.6,370.8,10.8,336.4,4,298.8z"/>
	<path style="fill:#FF7058;" d="M130.4,400c0,0.4,0,0.4,0,0.8H130c0.4-0.8,0.4-2,0.4-3.2V400z"/>
	<path style="fill:#FF7058;" d="M277.6,298.8v102H192v-45.2c0,0.4,0.4,0.8,0.4,1.2c1.6,3.6,5.6,6,9.6,6c6,0,10.4-4.8,10.4-10.4
		c0-0.8,0-1.6-0.4-2.4c-0.8-4-1.6-9.2-1.2-15.2c0.8-13.2-8.8-27.2-16-36L277.6,298.8L277.6,298.8z"/>
</g>
<path style="fill:#FFD05B;" d="M118.8,405.6c6.4,0.4,11.6-2,11.6-8v2.4c0,4.8,4,9.2,8.8,9.2c6.4,0.4,11.6-2,11.6-8v1.6
	c0,5.6,4.8,10.4,10.4,10.4c2.8,0,5.2-0.8,7.2-2s3.2-3.2,3.2-6v2.4c0,5.2,3.2,9.6,8.4,10.8c6.4,1.2,12.4-4,12.4-10.4v-52.4
	c0,0.4,0.4,0.8,0.4,1.2c1.6,3.6,5.6,6,9.6,6l0,0c6.8,0,11.6-6.4,10-12.8c-0.8-4-1.6-9.2-1.2-15.2c1.2-21.2-24.4-44.8-24.4-44.8
	h-67.6l-3.2,14c-4,16-5.6,32.8-5.6,49.2v43.2C110,401.2,114,405.2,118.8,405.6z"/>
<rect x="113.6" y="278" style="fill:#FFFFFF;" width="81.2" height="12"/>
<g>
	<path style="fill:#4CDBC4;" d="M104.4,133.6c-0.4,0-0.4,0-0.8,0v-0.8c0.8,0.4,2,0.4,3.2,0.4h-2.4V133.6z"/>
	<path style="fill:#4CDBC4;" d="M205.2,4.4V120l-5.2-1.2c-16-4-32.8-5.6-49.2-5.6H108c-1.6,0-3.2,0.4-4.4,1.2V49.2
		C133.2,27.2,168,11.6,205.2,4.4z"/>
	<path style="fill:#4CDBC4;" d="M205.2,198v80H103.6v-82.8h45.2c-0.4,0-0.8,0.4-1.2,0.4c-3.6,1.6-6,5.6-6,9.6
		c0,6,4.8,10.4,10.4,10.4c0.8,0,1.6,0,2.4-0.4c4-0.8,9.2-1.6,15.2-1.2C182.4,214.8,196.4,205.6,205.2,198z"/>
</g>
<path style="fill:#FFD05B;" d="M98.4,122c-0.4,6.4,2,11.6,8,11.6H104c-4.8,0-9.2,4-9.2,8.8c-0.4,6.4,2,11.6,8,11.6h-1.6
	c-5.6,0-10.4,4.8-10.4,10.4c0,2.8,0.8,5.2,2,7.2s3.2,3.2,6,3.2h-2.4c-5.2,0-9.6,3.2-10.8,8.4c-1.2,6.4,4,12.4,10.4,12.4h52.4
	c-0.4,0-0.8,0.4-1.2,0.4c-3.6,1.6-6,5.6-6,9.6l0,0c0,6.8,6.4,11.6,12.8,10c4-0.8,9.2-1.6,15.2-1.2C190.4,215.6,214,190,214,190v-68
	l-14-3.2c-16-4-32.8-5.6-49.2-5.6h-43.2C102.8,113.2,98.8,116.8,98.4,122z"/>
<rect x="214.4" y="116.8" style="fill:#FFFFFF;" width="12" height="81.2"/>
</svg>